<svg id="Layer_1" xmlns="http://www.w3.org/2000/svg" width="
594.8px" height="113.9px" viewBox="0 0 594.8 113.9" style="enable-background:new 0 0 594.8 113.9"><path d="M35 99.8c-.9-4.4-.5-9 1.2-13.2L12.5 63c-3.3-3.3-3.2-8.8.1-12 3.3-3.3 8.8-3.3 12.1 0l6.1 6.1-9.1 9.1 7.2 7.2 25.5-25.5-7.2-7.2-9.1 9.1-6-6c-7.3-7.3-19.2-7.3-26.6 0-7.3 7.3-7.4 19.2 0 26.6 0-.2 29.5 29.4 29.5 29.4m64.8-20.9c-4.4.9-9 .5-13.2-1.2L63 101.4c-3.3 3.3-8.8 3.2-12-.1-3.3-3.3-3.3-8.8 0-12.1l6.1-6.1 9.1 9.1 7.2-7.2-25.6-25.5-7.2 7.2 9.1 9.1-6 6c-7.3 7.3-7.3 19.2 0 26.6 7.3 7.3 19.2 7.4 26.6 0-.1 0 29.5-29.5 29.5-29.5M78.9 14.2c.9 4.4.5 9-1.2 13.2L101.3 51c3.3 3.3 3.2 8.7-.1 12-3.3 3.3-8.8 3.3-12.1 0L83 56.9l9.1-9.1-7.1-7.2-25.5 25.5 7.2 7.2 9.1-9.1 6 6c7.3 7.3 19.2 7.3 26.6 0 7.3-7.3 7.4-19.2.1-26.6-.1.1-29.7-29.5-29.6-29.4M14.1 35c4.4-.9 9-.5 13.2 1.2L51 12.6c3.3-3.3 8.8-3.2 12 .1 3.3 3.3 3.3 8.8 0 12.1l-6.1 6.1-9.1-9.1-7.2 7.2 25.5 25.5 7.2-7.2-9.1-9.1 6-6c7.3-7.3 7.3-19.2 0-26.6-7.3-7.3-19.3-7.4-26.6 0L14.1 35" fill-rule="evenodd" clip-rule="evenodd" fill="#a02337"/><path class="st1" fill="#58595b" style="fill-rule:evenodd;clip-rule:evenodd" d="M145.5 93.2l2 1.7c.4.2.5.4.5.6 0 .2-.1.4-.4.5l-.9.4v6.8l.3 2.8c0 .3-.2.6-.5.8-.2.2-.6.3-1.1.3-.9 0-1.3-.2-1.3-.7v-1.2h-12.3v1c0 .4-.2.6-.5.8-.3.2-.7.3-1.2.3s-.8-.3-.8-.8l.1-3.2v-7.5c0-1.2-.1-1.9-.2-2.3l2.7 1.3H144l1.5-1.6zm-13.7 11.1h12.3v-3.9h-12.3v3.9zm0-4.7h12.3v-4h-12.3v4zm13.4-21.3l2.3 1.7c.2.1.2.3.3.7 0 .2-.1.3-.4.3l-1.1-.1c-2.1.3-4.6.6-7.2.9V85h8.9l1.9-2.1 2.6 1.9c.3.2.4.4.4.7 0 .3-.2.5-.6.5h-12c1.1.9 2.1 1.6 3.2 2.2 1.3.8 2.7 1.4 4.1 1.9 1.6.6 3.4 1 5.6 1.5l-.2.7c-.4 0-.8 0-1.1.1-.3.1-.8.7-1.4 1.8-1.4-.5-2.9-1.2-4.5-2.2-1.6-.9-3-2-4.4-3.3-.7-.7-1.6-1.6-2.6-2.7h-.1v6.6c0 .4-.2.7-.6.9-.4.2-.7.3-1.1.3-.6 0-.9-.3-1-.9l.2-3.3v-2.4c-.7 1.1-1.5 2-2.4 2.6-1.4 1.2-3.2 2.3-5.4 3.5-1.7.8-3.4 1.6-5.4 2.2l-.3-.6c1.8-.9 3.4-1.8 4.8-2.8 1.5-1 2.8-2 4-3.1 1-1 1.9-2 2.6-3.1h-7c-1.1 0-2.2.1-3.4.2l-.6-1.6c1.4.2 2.7.3 4 .3h9.1V82c-2.3.2-5.6.3-10 .5l-.4-.6c4.2-.4 7.5-.8 9.9-1.2 3.8-.6 6.8-1.3 9.3-2.4M170.6 78.9l2.9.4c.5.1.8.2.8.6 0 .4-.4.7-1.2 1v2.7h4.6v-2.7c0-.3 0-.9-.1-1.9l2.9.4c.5.1.8.3.8.6 0 .4-.4.7-1.2 1v2.6h1.6l1.7-2 2.5 1.8c.2.2.4.4.4.7 0 .3-.2.5-.6.5h-5.6v5h3.2l1.9-2.1 2.6 1.9c.2.2.4.5.4.7 0 .3-.2.4-.6.4h-8.3c.7.6 1.4 1.2 2.3 1.7.9.6 1.8 1 2.9 1.4 1.1.4 2.4.8 3.9 1.1l-.3.7c-.4 0-.8 0-1.1.1-.3.1-.7.7-1.3 1.8-.9-.4-1.9-1-3-1.8-1-.8-1.9-1.7-2.8-2.7-.5-.5-1.1-1.3-1.7-2.3h-4.4c-.7 1.3-1.4 2.5-2.2 3.4 0 .1-.1.1-.1.2l.6.3h6.1l1.3-1.2 1.9 1.5c.3.2.5.4.5.6 0 .2-.1.3-.4.4l-.9.3v2l.3 2.6c0 .3-.1.5-.4.7-.2.2-.6.3-1 .3-.8 0-1.2-.2-1.2-.6v-1h-6v2.6c0 .7.4 1.1 1.3 1.3.8.2 2.5.3 4.9.3 2.3 0 3.7-.1 4.4-.3.5-.1.9-.3 1.1-.7l1.1-3.5h.8l-.1 2.9c0 .3.2.7.5 1 .4.3.6.7.6 1.1 0 .4-.2.8-.6 1-.4.3-1.1.5-2.1.7-1.2.1-3.1.2-5.5.2-2.8 0-4.7-.1-5.8-.4-.9-.1-1.7-.4-2.2-1-.4-.5-.7-1.2-.7-2.2v-7.4c-.3.3-.7.6-1.1.9-1.4 1-3 2-4.8 2.8l-.4-.6c1-.7 1.9-1.3 2.7-1.9.9-.8 1.7-1.6 2.4-2.5.8-1 1.5-2.3 2.3-3.8h-5.4l-2.6 8.3c-.2.5-.2.9-.3 1.4 0 .6.1 1.4.4 2.3.4 1.1.6 1.8.6 2.2 0 .7-.2 1.3-.5 1.8-.3.4-.7.6-1.1.6-.5 0-.8-.2-1.1-.5-.3-.4-.5-1-.5-1.8 0-.2 0-.5.1-1.1.1-.5.1-.9.2-1.3 0-.8-.2-1.4-.5-1.9s-.8-.8-1.9-1v-.9c.6.3 1 .4 1.2.4.4 0 .7-.3 1-1l5.7-12.9.8.4-1.2 4h5v-5c-1.1 0-2.2.1-3.2.2l-.6-1.6c1.3.2 2.5.3 3.8.3v-2.9c-.2-.1-.3-.7-.4-1.6m1.7 20.1h6v-3.9h-6V99zm.8-9.5h4.6v-5h-4.6v5zm-14.5-2.7c1.5.7 2.6 1.2 3.5 1.7.7.5 1.1 1 1.1 1.5 0 .9-.4 1.3-1.4 1.4-.5 0-.9-.3-1.2-.8-.6-1.1-1.4-2.1-2.6-3.2l.6-.6zm1.9-7.6c1.5.7 2.7 1.3 3.5 1.8.8.5 1.2 1 1.2 1.5 0 .9-.5 1.3-1.4 1.4-.5 0-.9-.3-1.2-.9-.6-1.1-1.5-2.2-2.7-3.2l.6-.6zM205 79.3l2.3 1.2h11.5l1.3-1.2 1.8 1.5c.3.2.5.4.5.6 0 .2-.1.3-.4.4l-.8.3v9.6l.2 2.6c0 .3-.1.5-.4.7-.3.2-.6.3-1 .3-.8 0-1.2-.2-1.2-.6v-1h-4.5v4.7h3.2l1.9-2 2.5 1.9c.3.2.4.4.4.7 0 .3-.2.5-.6.5h-7.3v5.6h4.6l2-2.1 2.6 1.9c.2.2.4.4.4.7 0 .3-.2.5-.6.5h-17.7c-1.1 0-2.3.1-3.4.2l-.6-1.6c1.3.2 2.7.4 4 .4h6.2v-5.6h-3.2c-1.1 0-2.2.1-3.4.3l-.6-1.6c1.3.3 2.7.4 4 .4h3.2v-4.7h-4.4v.5c0 .4-.1.6-.5.8-.3.2-.7.3-1.1.3-.5 0-.8-.3-.8-.9l.1-2.9v-10c0-1.3 0-2-.2-2.4m2.5 13.5h4.4v-5.2h-4.4v5.2zm6.9 0h4.5v-5.2h-4.5v5.2zm-6.9-6h4.4v-5.4h-4.4v5.4zm6.9 0h4.5v-5.4h-4.5v5.4zm-12.2-7l2.2 1.7c.2.2.3.4.3.6 0 .3-.2.5-.6.5h-3.8v7.3h.2l1.6-1.7 2.1 1.6c.2.2.3.4.3.6 0 .3-.2.5-.5.5h-3.8v6.8c1.5-.3 2.9-.7 4.4-1.2l.1.7c-2.5 1.6-5.3 3-8.5 4.5l-.2 1.1c0 .3-.1.4-.4.4-.2 0-.4-.1-.6-.5l-1.2-3.1c1.4-.3 2.7-.7 4-1.1V91c-1 0-2.1.1-3.2.2l-.6-1.6c1.3.2 2.5.3 3.8.3v-7.3c-1.1 0-2.2.1-3.4.2l-.6-1.6c1.3.2 2.6.4 4 .4h2.6l1.8-1.8zM253.4 80.8l2.8 2c.2.2.4.4.4.7 0 .3-.2.5-.6.5h-10.7v19.5h8.5l1.9-2.2 2.7 2c.3.2.4.4.4.7 0 .3-.2.5-.6.5h-24.1c-1.3 0-2.6.1-3.9.4l-.8-1.8c1.6.3 3.1.5 4.7.5h8.4V83.9h-6.2c-1.3 0-2.6.1-3.9.4l-.7-1.8c1.6.3 3.1.5 4.6.5h15.1l2-2.2zM276.2 78.6l3.5.5c.5.1.8.2.8.6 0 .3-.4.7-1.3 1 0 2.6-.1 4.7-.3 6.6h8.5l2-2.2 2.7 2c.3.2.4.5.4.7 0 .3-.2.5-.6.5h-12.4c1.1 2.6 2.2 4.8 3.3 6.5 1.3 2.1 2.9 3.8 4.9 5.4 1.8 1.5 3.7 2.6 5.8 3.4l-.3.9c-.5 0-.9.1-1.3.2s-.9.6-1.6 1.7c-1.8-1.1-3.4-2.4-4.8-4.1-1.7-1.9-3.1-4-4.2-6.3-1-1.9-1.8-4.3-2.5-7.2-.1.2-.1.6-.2 1-.4 2.2-1 4.1-1.8 5.8-.7 1.7-1.7 3.1-2.8 4.4-1.2 1.5-2.6 2.7-4.3 3.9-1.4 1-3.2 2.1-5.3 3.3l-.6-.7c2.3-1.5 4.1-2.8 5.2-3.8 1.7-1.5 3.1-3.2 4.3-5 1.2-2 2.1-4.1 2.7-6.5.2-.9.3-1.8.5-2.7h-8c-1.1 0-2.2.1-3.4.3l-.6-1.6c1.3.2 2.7.4 4 .4h8.1c.1-1.3.2-3.1.3-5.2-.3-1.2-.4-2.3-.7-3.8M319.3 93.3l2.1 2.1c.3.3.5.5.5.7 0 .3-.2.5-.5.5h-1c-1.8.8-3.5 1.4-5.2 1.9 0 .1 0 .1.1.3 0 .2-.2.3-.6.6v.4h7.7l1.8-2.1 2.6 1.9c.2.2.4.4.4.7 0 .3-.2.5-.6.5h-11.8v3.2c0 1.1-.5 1.9-1.6 2.6-.9.5-1.7.7-2.4.7 0-.8-.1-1.3-.3-1.7-.2-.5-1.2-.9-3.1-1.4l.1-.9 4.1 1c.4 0 .6-.2.6-.6v-2.8h-8.7c-1.1 0-2.3.1-3.4.3l-.6-1.6c1.3.3 2.7.4 4 .4h8.7c0-.8 0-1.6-.1-2.6l1.9.6c1.2-.7 2.4-1.5 3.4-2.5H308c-1.1 0-2.2.1-3.4.3l-.6-1.6c1.3.3 2.7.5 4 .5h10l1.3-1.4zm-12.3-15l2 1.9c.2.2.3.3.3.5 0 .3-.1.5-.4.5l-1.2-.4c-1.5.3-2.8.5-4.1.7l.2 2.2h1.7l1.3-1.3 1.8 1.3c.2.2.3.3.3.5s-.2.3-.5.3h-4.6l.2 2.8h1.8l1.3-1.3 1.8 1.3c.2.2.3.3.3.5s-.2.4-.5.4H304l.2 2.8h17l.2-2.7h-.3c-1.1 0-2.2.1-3.4.2l-.6-1.6c1.3.3 2.7.5 4 .5h.4l.2-2.8h-.4c-1.1 0-2.2.1-3.4.2l-.6-1.6c1.3.3 2.6.5 4 .5h.5l.2-2.7h-.7c-1.1 0-2.2.1-3.4.3l-.6-1.6c1.3.3 2.6.5 4 .5h.5v-.1l1.3-1.3 1.7 1.5c.3.2.5.5.5.6 0 .2-.1.4-.3.5l-.8.5-.8 9h.5l1.4-1.2 2.1 1.6c.3.1.4.3.4.7 0 .2-.2.3-.5.5l-.8.2c-.8.8-1.8 1.7-3.2 2.7l-.7-.4c.6-1.1 1.1-2.2 1.4-3.1h-22.8c0 .7-.1 1.3-.3 1.9-.2.7-.5 1.2-.8 1.6-.3.3-.6.5-.9.5-.9 0-1.3-.4-1.3-1.3 0-.2.2-.6.5-1 .4-.4.7-.8 1.1-1.5.4-.7.7-1.6 1-2.7l.7.2c.1.5.1 1 .1 1.4h.9l-.6-9.1c0-.7-.2-1.6-.5-2.6l2.3 1.3c1.3-.6 2.4-1.3 3.6-2.3m7.5 6.6l2.3 1c.3.1.4.2.4.5s-.4.4-1.2.6l-.7.7c.1.1.2.1.4.3 1 .5 1.5 1.1 1.5 1.6 0 .3-.1.6-.2.7-.1.2-.4.3-.8.4-.4 0-.8-.3-1.2-.9-.4-.4-.7-.7-1.1-1-.4.3-.9.5-1.6.8-.8.3-1.8.6-3.2 1l-.2-.6c.6-.2 1.1-.4 1.5-.6.6-.3 1.1-.7 1.6-1.1.2-.2.4-.4.6-.5-.7-.5-1.5-1.1-2.5-1.6l.5-.3c1.2.4 2.1.7 2.8 1 .2-.5.6-1.1 1.1-2m.1-6.2l2.3 1c.2.1.4.2.4.5s-.4.4-1.2.6c-.3.3-.5.7-.8.9.9.6 1.4 1.1 1.4 1.7 0 .3-.1.5-.2.7-.1.2-.4.3-.8.3-.3 0-.7-.2-1.1-.8-.3-.3-.5-.6-.7-.7-.3.2-.7.5-1.1.7-.7.4-1.7.7-2.9 1.1l-.2-.6c.5-.3.9-.5 1.2-.7.5-.3 1-.7 1.4-1.1.1-.2.2-.3.4-.5-.7-.6-1.6-1.3-2.8-2.1l.5-.4c1.4.6 2.4 1 3.1 1.3.3-.3.7-1 1.1-1.9"/><g><path class="st2" fill="#58595b" d="M148.3 12.6h-1.1c-.1-2 0-3.3-3.2-3.3h-6.1v20.8c0 2.6 1.5 2.6 3.7 2.7v1c-1.9 0-3.7-.1-5.4-.1-1.9 0-3.8 0-5.8.1v-1c2.1 0 3.7-.1 3.7-2.7V9.3h-5.3c-3.6 0-3.8.9-4.5 3.3h-1l.4-5.9h.8c.4 1 1.5 1 2.5 1h18.2c1.4 0 2.5-.3 2.6-1h.8l-.3 5.9zM171.3 21.9v-6.8c0-2.2-1.3-2.2-3-2.2v-.8c1.8 0 3.3.1 5 .1 1.4 0 2.9-.1 4.4-.1v.8c-1.8 0-3 .1-3 2.2v15.6c0 2.2 1.3 2.2 3 2.2v.8c-1.5 0-3-.1-4.5-.1-1.6 0-3.1 0-4.9.1v-.8c1.8 0 3-.1 3-2.2v-7.5h-13.5v7.5c0 2.2 1.3 2.2 3 2.2v.8c-1.6 0-3-.1-4.5-.1-1.6 0-3.2 0-4.9.1v-.8c1.8 0 3-.1 3-2.2V15.1c0-2.2-1.3-2.2-3-2.2v-.8c1.6 0 3.1.1 4.6.1 1.5 0 3.1 0 4.8-.1v.8c-1.8 0-3 .1-3 2.2v6.8h13.5zM186.7 21.9h4.4c2.7 0 2.7-2 2.8-2.7h.7c-.1.7-.1 2.4-.1 3.5 0 1 .2 2.4.1 3.4h-.7c0-3-1.1-3-3.6-3h-3.6v5.3c0 3.4.1 4.3 3.4 4.3h2.1c3.3-.2 4.8-.6 6.1-3.9l.8.1c-.5 1.5-1 3.1-1.4 4.7-3.3 0-6.7-.1-10-.1-2.5 0-5 0-7.4.1v-.8c2.9 0 3.2-.5 3.2-3.5V15.6c0-2.5-.5-2.7-3.2-2.8V12c2.2.1 4.5.1 6.8.1 3.2 0 6.4 0 9.6-.1v4.6l-.7.2c-.5-2.9-2-3.8-5.4-3.8h-3.9v8.9zM232.8 19.5v-8.1c0-2.6-1.5-2.6-3.7-2.7v-1c2.1 0 4 .1 5.9.1 1.7 0 3.5-.1 5.3-.1v1c-2.1 0-3.7.1-3.7 2.7v18.7c0 2.6 1.5 2.6 3.7 2.7v1c-1.8 0-3.6-.1-5.4-.1-1.9 0-3.7 0-5.8.1v-1c2.1 0 3.7-.1 3.7-2.7v-9h-16.2v9c0 2.6 1.5 2.6 3.7 2.7v1c-1.9 0-3.7-.1-5.4-.1-1.9 0-3.8 0-5.8.1v-1c2.1 0 3.7-.1 3.7-2.7V11.4c0-2.6-1.5-2.6-3.7-2.7v-1c1.9 0 3.7.1 5.5.1 1.8 0 3.7 0 5.7-.1v1c-2.1 0-3.7.1-3.7 2.7v8.1h16.2zM254.3 11.6c6.7 0 12 5.3 12 11.2 0 5.7-4.7 11.4-12.1 11.4-6.7 0-12-5.3-12-11.2.1-5.7 4.8-11.4 12.1-11.4zm.3 21.6c4.9 0 8-3.9 8-9.5 0-4.7-2.9-11.1-8.7-11.1-4.9 0-8 3.9-8 9.5 0 4.7 3 11.1 8.7 11.1zM290.4 34h-.8l-17.5-17.8v11.6c0 4.3.4 5.1 4 5.1v.8c-1.5 0-3-.1-4.5-.1s-3 0-4.5.1v-.8c2 0 3.6 0 3.6-3.9V16.5c0-2.7-1.2-3.6-4.1-3.6v-.8c1 0 2 .1 3.1.1.9 0 1.8-.1 2.7-.1 1.4 1.9 4.5 4.7 8.3 8.6 2.8 2.9 6 6 8.3 8.3V16.6c0-2.9-.7-3.7-4.1-3.8V12c1.5 0 3.1.1 4.7.1 1.3 0 2.6-.1 3.9-.1v.8c-2 0-3.1.2-3.1 3.2v18zM316.2 17.6h-.7c-.9-3.6-4.1-5-7.9-5-5.9 0-9.3 4.8-9.3 9.9 0 5.4 3.5 10.7 9.6 10.7 2.6 0 4-.9 4.5-1.2v-4.6c0-2.3-1.3-2.3-3-2.3v-.8c1.6 0 3.1.1 4.6.1 1.5 0 3.1 0 4.1-.1v.8c-1.1 0-2.4 0-2.4 2.3v4.1l.5.5v.5c-2.7.9-5.8 1.8-8.7 1.8-9.4 0-12.9-6.8-12.9-11.3 0-6.5 5.5-11.3 12.5-11.3 3 0 5.8.7 8.6 1.7l.5 4.2zM327 32.7c2.1 0 3.7-.1 3.7-2.7V11.4c0-2.6-1.5-2.6-3.7-2.7v-1c1.9 0 3.7.1 5.5.1 1.8 0 3.7 0 5.1-.1v1c-1.5 0-3.1.1-3.1 2.7v18.7c0 2.6 1.5 2.6 3.2 2.7v1c-1.5 0-3.2-.1-5-.1-1.9 0-3.8 0-5.8.1v-1.1zm17.2-21.1c.4-.4 1.5-1.4 1.5-2 0-.9-1.2-.9-2.2-.9v-1c1.7 0 3.5.1 5.2.1 1.3 0 2.6 0 3.9-.1v1c-2.2 0-3.6.3-7.2 3.8l-6.9 6.7c4.1 4.1 8 8.3 12.2 12.3 1.3 1.2 2.6 1.2 3.5 1.2v1c-1.3 0-2.6-.1-3.9-.1-1 0-1.9 0-2.9.1-4-4.5-8.3-8.6-12.5-12.9l9.3-9.2z"/><path class="st2" fill="#58595b" d="M365.7 11.6c6.7 0 12 5.3 12 11.2 0 5.7-4.7 11.4-12.1 11.4-6.7 0-12-5.3-12-11.2 0-5.7 4.7-11.4 12.1-11.4zm.3 21.6c4.9 0 8-3.9 8-9.5 0-4.7-2.9-11.1-8.7-11.1-4.9 0-8 3.9-8 9.5 0 4.7 2.9 11.1 8.7 11.1zM401.9 34h-.8l-17.5-17.8v11.6c0 4.3.4 5.1 4 5.1v.8c-1.5 0-3-.1-4.5-.1s-3 0-4.5.1v-.8c2 0 3.6 0 3.6-3.9V16.5c0-2.7-1.2-3.6-4.1-3.6v-.8c1 0 2 .1 3.1.1.9 0 1.8-.1 2.7-.1 1.4 1.9 4.5 4.7 8.3 8.6 2.8 2.9 6 6 8.3 8.3V16.6c0-2.9-.7-3.7-4.1-3.8V12c1.5 0 3.1.1 4.7.1 1.3 0 2.6-.1 3.9-.1v.8c-2 0-3.1.2-3.1 3.2v18zM427.7 17.6h-.7c-.9-3.6-4.1-5-7.9-5-5.9 0-9.3 4.8-9.3 9.9 0 5.4 3.5 10.7 9.6 10.7 2.6 0 4-.9 4.5-1.2v-4.6c0-2.3-1.3-2.3-3-2.3v-.8c1.6 0 3.1.1 4.6.1 1.5 0 3.1 0 4.1-.1v.8c-1.1 0-2.4 0-2.4 2.3v4.1l.5.5v.5c-2.7.9-5.8 1.8-8.7 1.8-9.4 0-12.9-6.8-12.9-11.3 0-6.5 5.5-11.3 12.5-11.3 3 0 5.8.7 8.6 1.7l.5 4.2z"/></g><g><path class="st2" fill="#58595b" d="M123.7 43c1.8.1 3.6.1 5.4.1 1.4 0 2.8-.1 4.5-.1 4.1 0 10.1 1.6 10.1 7.4 0 4.4-4.4 7.4-8.6 7.4h-2v-1.2c.5.1 1 .1 1.5.1 3.5 0 5-3.2 5-5.8 0-5.2-3.9-6.6-6.5-6.6-.6 0-1.3 0-1.8.1v21c0 2.6 1.5 2.6 3.7 2.7v1c-2 0-3.7-.1-5.5-.1-1.9 0-3.8 0-5.8.1v-1c2.1 0 3.7-.1 3.7-2.7V47.6c0-2.9-.5-3.6-3.5-3.6v-1zM157.8 46.9c6.7 0 12 5.3 12 11.2 0 5.7-4.7 11.4-12.1 11.4-6.7 0-12-5.3-12-11.2.1-5.7 4.8-11.4 12.1-11.4zm.4 21.5c4.9 0 8-3.9 8-9.5 0-4.7-2.9-11.1-8.7-11.1-4.9 0-8 3.9-8 9.5 0 4.8 2.9 11.1 8.7 11.1zM189.2 69c-2.8-.1-5.7-.1-8.5-.1-3 0-5.9 0-8.9.1v-.8c1.7.1 3-.3 3-2.1V50.4c0-2.2-1.3-2.2-3-2.2v-.8c1.6 0 3.1.1 4.6.1 1.5 0 3.1 0 4.8-.1v.8c-1.8 0-3 .1-3 2.2v14.4c0 2.3.5 3.3 5.3 3.3 3.9 0 5.2-.9 6.3-3.9l.7.1-1.3 4.7zM202.2 65.9c0 2.2 1.3 2.2 3 2.2v.9c-1.7 0-3.2-.1-4.8-.1-1.5 0-3 0-4.6.1v-.8c1.8 0 3-.1 3-2.2v-7.5l-7-8.9c-1-1.3-1.1-1.2-3.1-1.4v-.8c.6 0 3.1.1 4.7.1 1.4 0 2.7-.1 4.1-.1v.8c-.5 0-1.9 0-1.9.7 0 .4.5 1.1 1.1 1.9l4.7 6.1 4.4-5.5c.4-.5 1.3-1.5 1.3-2.2 0-.9-.7-.9-2.4-.9v-.8c1.3 0 2.6.1 3.8.1.9 0 1.8-.1 2.7-.1v.8c-1.4 0-2 .9-2.8 1.8l-6.4 8v7.8zM234.7 51.4h-.9c-.1-1.7 0-2.8-2.7-2.8H226v17.3c0 2.2 1.3 2.2 3 2.2v.9c-1.6 0-3-.1-4.5-.1-1.6 0-3.2 0-4.9.1v-.8c1.8 0 3-.1 3-2.2V48.6h-4.4c-3 0-3.1.8-3.7 2.8h-.9l.4-4.9h.7c.4.8 1.3.9 2.1.9H232c1.2 0 2-.3 2.2-.9h.7l-.2 4.9zM244.2 57.1h4.4c2.7 0 2.7-2 2.8-2.7h.7c-.1.7-.1 2.4-.1 3.5 0 1 .2 2.4.1 3.4h-.7c0-3-1.1-3-3.6-3h-3.6v5.3c0 3.4.1 4.3 3.4 4.3h2.1c3.3-.2 4.8-.6 6.1-3.9l.8.1c-.5 1.5-1 3.1-1.4 4.7-3.3 0-6.7-.1-10-.1-2.5 0-5 0-7.4.1V68c2.9 0 3.2-.5 3.2-3.5V50.9c0-2.5-.5-2.7-3.2-2.8v-.8c2.2.1 4.5.1 6.8.1 3.2 0 6.4 0 9.6-.1v4.6l-.7.2c-.5-2.9-2-3.8-5.4-3.8h-3.9v8.8zM279.6 52.9h-.8c-.6-3.6-3.4-5.1-7.2-5.1-3.8 0-9.4 2.4-9.4 9.8 0 6.3 4.8 10.8 10 10.8 3.3 0 6.1-2.1 6.7-5.4l.8.2-.8 4.5c-1.4.8-5.2 1.6-7.4 1.6-7.8 0-12.8-4.7-12.8-11.7 0-6.4 6.1-10.9 12.7-10.9 2.7 0 5.3.8 7.9 1.6l.3 4.6zM302.2 57.1v-6.8c0-2.2-1.3-2.2-3-2.2v-.8c1.8 0 3.3.1 5 .1 1.4 0 2.9-.1 4.4-.1v.8c-1.8 0-3 .1-3 2.2v15.6c0 2.2 1.3 2.2 3 2.2v.9c-1.5 0-3-.1-4.5-.1-1.6 0-3.1 0-4.9.1v-.8c1.8 0 3-.1 3-2.2v-7.5h-13.5V66c0 2.2 1.3 2.2 3 2.2v.8c-1.6 0-3-.1-4.5-.1-1.6 0-3.2 0-4.9.1v-.8c1.8 0 3-.1 3-2.2V50.4c0-2.2-1.3-2.2-3-2.2v-.8c1.6 0 3.1.1 4.6.1 1.5 0 3.1 0 4.8-.1v.8c-1.8 0-3 .1-3 2.2v6.8h13.5zM334.8 69.2h-.8l-17.5-17.8V63c0 4.3.4 5.1 4 5.1v.9c-1.5 0-3-.1-4.5-.1s-3 0-4.5.1v-.8c2 0 3.6 0 3.6-3.9V51.8c0-2.7-1.2-3.6-4.1-3.6v-.8c1 0 2 .1 3.1.1.9 0 1.8-.1 2.7-.1 1.4 1.9 4.5 4.7 8.3 8.6 2.8 2.9 6 6 8.3 8.3V51.9c0-2.9-.7-3.7-4.1-3.8v-.8c1.5 0 3.1.1 4.7.1 1.3 0 2.6-.1 3.9-.1v.8c-2 0-3.1.2-3.1 3.2v17.9zM343.4 50.4c0-2.2-1.3-2.2-3-2.2v-.8c1.6 0 3.1.1 4.6.1 1.5 0 3.1 0 4.8-.1v.8c-1.8 0-3 .1-3 2.2V66c0 2.2 1.3 2.2 3 2.2v.8c-1.6 0-3-.1-4.5-.1-1.6 0-3.2 0-4.9.1v-.8c1.8 0 3-.1 3-2.2V50.4zM372.6 52.9h-.8c-.6-3.6-3.4-5.1-7.2-5.1-3.8 0-9.4 2.4-9.4 9.8 0 6.3 4.8 10.8 10 10.8 3.3 0 6.1-2.1 6.7-5.4l.8.2-.8 4.5c-1.4.8-5.2 1.6-7.4 1.6-7.8 0-12.8-4.7-12.8-11.7 0-6.4 6.1-10.9 12.7-10.9 2.7 0 5.3.8 7.9 1.6l.3 4.6zM409.9 44c-3.2 0-3.2 1.4-3.2 6v10.7c0 5.1-3.4 8.9-10.5 8.9-6.6 0-10.6-3-10.7-9.3V46.6c0-2.6-1.5-2.6-3.7-2.7v-1c1.9 0 3.7.1 5.5.1 1.8 0 3.7 0 5.7-.1v1c-2.1 0-3.7.1-3.7 2.7v12.6c0 4.4 1.6 8.7 7.8 8.7 6.7 0 7.3-4.8 7.3-7.3V50.1c0-6.1-.2-6-3.8-6.1v-1c1.7 0 3.4.1 5.1.1 1.4 0 2.7-.1 4.1-.1v1zM435.5 69.2h-.8l-17.5-17.8V63c0 4.3.4 5.1 4 5.1v.9c-1.5 0-3-.1-4.5-.1s-3 0-4.5.1v-.8c2 0 3.6 0 3.6-3.9V51.8c0-2.7-1.2-3.6-4.1-3.6v-.8c1 0 2 .1 3.1.1.9 0 1.8-.1 2.7-.1 1.4 1.9 4.5 4.7 8.3 8.6 2.8 2.9 6 6 8.3 8.3V51.9c0-2.9-.7-3.7-4-3.8v-.8c1.5 0 3.1.1 4.7.1 1.3 0 2.6-.1 3.9-.1v.8c-2 0-3.1.2-3.1 3.2v17.9zM444.4 50.4c0-2.2-1.3-2.2-3-2.2v-.8c1.6 0 3.1.1 4.6.1 1.5 0 3.1 0 4.8-.1v.8c-1.8 0-3 .1-3 2.2V66c0 2.2 1.3 2.2 3 2.2v.8c-1.6 0-3-.1-4.5-.1-1.6 0-3.2 0-4.9.1v-.8c1.8 0 3-.1 3-2.2V50.4zM459.1 56.6c-.8-2-1.8-4-2.6-6-.8-1.9-1.3-2.4-3.5-2.4v-.8c1.6 0 3.1.1 4.7.1 1.4 0 2.8-.1 4.3-.1v.8c-.5 0-1 0-1.4.1-.5 0-.9.3-.9.7 0 1 1.8 4.8 2.1 5.7l4.5 10.6 2.5-6.1c.8-2 1.7-4 2.4-6 .3-1 1-2.5 1-3.5 0-1.5-1.3-1.4-2.5-1.4v-.8c1.3 0 2.6.1 3.9.1 1 0 2.1 0 3.1-.1v.8c-1.1 0-1.8.5-2.2 1.2-.2.3-2.5 5.7-2.5 5.9l-6.1 14.2h-1.2l-5.6-13zM485.2 57.1h4.4c2.7 0 2.7-2 2.8-2.7h.7c-.1.7-.1 2.4-.1 3.5 0 1 .2 2.4.1 3.4h-.7c0-3-1.1-3-3.6-3h-3.6v5.3c0 3.4.1 4.3 3.4 4.3h2.1c3.3-.2 4.8-.6 6.1-3.9l.8.1c-.5 1.5-1 3.1-1.4 4.7-3.3 0-6.7-.1-10-.1-2.5 0-5 0-7.4.1V68c2.9 0 3.2-.5 3.2-3.5V50.9c0-2.5-.5-2.7-3.2-2.8v-.8c2.2.1 4.5.1 6.8.1 3.2 0 6.4 0 9.6-.1v4.6l-.7.2c-.5-2.9-2-3.8-5.4-3.8h-3.9v8.8zM522 63.8h.8c.6 2.3 2.4 4.6 5.2 4.6 2.6 0 4.6-1.7 4.6-4.1 0-5.8-9.9-4.1-9.9-11.4 0-4 3.1-6.1 7.2-6.1 1.4 0 2.7.3 4.1.5l.5 4h-.8c-.4-2.2-1.9-3.4-4.3-3.4-2.5 0-4 1.7-4 4 0 5.8 10.3 4.2 10.3 11.3 0 4-3.9 6.3-7.9 6.3-1.7 0-3.5-.4-5.1-1.1l-.7-4.6zM541.1 50.4c0-2.2-1.3-2.2-3-2.2v-.8c1.6 0 3.1.1 4.6.1 1.5 0 3.1 0 4.8-.1v.8c-1.8 0-3 .1-3 2.2V66c0 2.2 1.3 2.2 3 2.2v.8c-1.6 0-3-.1-4.5-.1-1.6 0-3.2 0-4.9.1v-.8c1.8 0 3-.1 3-2.2V50.4zM570.6 51.4h-.9c-.1-1.7 0-2.8-2.7-2.8h-5v17.3c0 2.2 1.3 2.2 3 2.2v.9c-1.6 0-3-.1-4.5-.1-1.6 0-3.2 0-4.9.1v-.8c1.8 0 3-.1 3-2.2V48.6h-4.4c-3 0-3.1.8-3.7 2.8h-.9l.4-4.9h.7c.4.8 1.3.9 2.1.9H568c1.2 0 2-.3 2.2-.9h.7l-.3 4.9zM585.6 65.9c0 2.2 1.3 2.2 3 2.2v.9c-1.7 0-3.2-.1-4.8-.1-1.5 0-3 0-4.6.1v-.8c1.8 0 3-.1 3-2.2v-7.5l-7-8.9c-1-1.3-1.1-1.2-3.1-1.4v-.8c.6 0 3.1.1 4.7.1 1.4 0 2.7-.1 4.1-.1v.8c-.5 0-1.9 0-1.9.7 0 .4.5 1.1 1.1 1.9l4.7 6.1 4.4-5.5c.4-.5 1.3-1.5 1.3-2.2 0-.9-.7-.9-2.4-.9v-.8c1.3 0 2.6.1 3.9.1.9 0 1.8-.1 2.7-.1v.8c-1.4 0-2 .9-2.8 1.8l-6.4 8v7.8zM506.2 58.7v7.2c0 2.2 1.3 2.2 3 2.2v.9c-1.6 0-3-.1-4.5-.1-1.6 0-3.2 0-4.9.1v-.8c1.7.1 3-.3 3-2.1V50.4c0-2.2-1.3-2.2-3-2.2v-.8c1.8 0 3.4.1 5.1.1 1.2 0 2.3-.1 4.5-.1 6.3 0 7.7 3.3 7.7 5.5 0 2.6-2 4.5-4.8 5.3 3.7 5.4 4 6.5 5.3 8.1 1 1.2 1.8 2 3.5 2v.7c-.8 0-1.7-.1-2.5-.1-.9 0-1.9 0-2.8.1-2.5-3.4-6.6-10.2-6.6-10.2h-3zm2-10.4c-.8 0-1.4.1-2 .2v9.1c.5.1 1.2.2 1.8.2 4.1 0 5.7-2.5 5.7-4.7 0-2.8-1.5-4.8-5.5-4.8z"/></g></svg>